<?xml version="1.0" standalone="no"?>
<!DOCTYPE svg PUBLIC "-//W3C//DTD SVG 20010904//EN"
 "http://www.w3.org/TR/2001/REC-SVG-20010904/DTD/svg10.dtd">
<svg version="1.0" xmlns="http://www.w3.org/2000/svg"
 width="512.000000pt" height="512.000000pt" viewBox="0 0 512.000000 512.000000"
 preserveAspectRatio="xMidYMid meet">
<metadata>
Created by potrace 1.11, written by Peter Selinger 2001-2013
</metadata>
<g transform="translate(0.000000,512.000000) scale(0.100000,-0.100000)"
fill="#000000" stroke="none">
<path d="M1540 4560 l-775 -5 -47 -23 c-62 -31 -126 -95 -154 -158 l-24 -50 0
-1777 c-1 -1745 0 -1778 19 -1822 28 -63 102 -139 164 -166 l52 -24 1785 0
1785 0 52 24 c62 28 136 103 166 169 l22 47 -1 1775 -1 1775 -22 52 c-27 62
-102 135 -169 166 l-47 22 -1015 0 c-558 0 -1364 -2 -1790 -5z m2180 -612 l0
-213 -260 -375 c-142 -206 -291 -422 -331 -480 -220 -318 -280 -405 -424 -615
-87 -126 -177 -257 -200 -290 -181 -262 -305 -445 -305 -449 0 -3 353 -6 785
-6 l785 0 -2 -278 -3 -277 -1205 0 -1205 0 -3 213 -2 213 45 67 c53 78 77 112
545 787 454 654 478 689 585 845 50 72 147 212 217 313 l128 182 -753 5 -752
5 -3 283 -2 282 1180 0 1180 0 0 -212z"/>
</g>
</svg>
